<svg xmlns="http://www.w3.org/2000/svg" width="809.3837890625" height="405.7493896484375" viewBox="-311.2521667480469 -128.38226318359375 809.3837890625 405.7493896484375"><title>Neo4j Graph Visualization</title><desc>Created using Neo4j (http://www.neo4j.com/)</desc><g class="layer relationships"><g class="relationship" transform="translate(19.319952319520524 127.75200652151068) rotate(513.8472179098669)"><path class="outline" fill="#A5ABB6" stroke="none" d="M 25 0.5 L 45.218174550296595 0.5 L 45.218174550296595 -0.5 L 25 -0.5 Z M 84.9955183002966 0.5 L 105.21369285059319 0.5 L 105.21369285059319 3.5 L 112.21369285059319 0 L 105.21369285059319 -3.5 L 105.21369285059319 -0.5 L 84.9955183002966 -0.5 Z"/><text text-anchor="middle" pointer-events="none" font-size="8px" fill="#000000" x="65.1068464252966" y="3" transform="rotate(180 65.1068464252966 0)" font-family="sans-serif">ROUTED</text></g><g class="relationship" transform="translate(19.319952319520524 127.75200652151068) rotate(301.341232544953)"><path class="outline" fill="#A5ABB6" stroke="none" d="M 25 0.5 L 75.71824815165009 0.5 L 75.71824815165009 -0.5 L 25 -0.5 Z M 115.49559190165009 0.5 L 166.21384005330017 0.5 L 166.21384005330017 3.5 L 173.21384005330017 0 L 166.21384005330017 -3.5 L 166.21384005330017 -0.5 L 115.49559190165009 -0.5 Z"/><text text-anchor="middle" pointer-events="none" font-size="8px" fill="#000000" x="95.60692002665009" y="3" font-family="sans-serif">ROUTED</text></g><g class="relationship" transform="translate(232.45520032810393 -31.77013329964157) rotate(185.0734931657754)"><path class="outline" fill="#A5ABB6" stroke="none" d="M 25 0.5 L 31.84649168934989 0.5 L 31.84649168934989 -0.5 L 25 -0.5 Z M 71.62383543934989 0.5 L 78.47032712869978 0.5 L 78.47032712869978 3.5 L 85.47032712869978 0 L 78.47032712869978 -3.5 L 78.47032712869978 -0.5 L 71.62383543934989 -0.5 Z"/><text text-anchor="middle" pointer-events="none" font-size="8px" fill="#000000" x="51.73516356434989" y="3" transform="rotate(180 51.73516356434989 0)" font-family="sans-serif">ROUTED</text></g><g class="relationship" transform="translate(-282.25217083718076 77.56106487270449) rotate(391.8124406571352)"><path class="outline" fill="#A5ABB6" stroke="none" d="M 25 0.5 L 60.76121530452694 0.5 L 60.76121530452694 -0.5 L 25 -0.5 Z M 142.18309030452696 0.5 L 177.94430560905388 0.5 L 177.94430560905388 3.5 L 184.94430560905388 0 L 177.94430560905388 -3.5 L 177.94430560905388 -0.5 L 142.18309030452696 -0.5 Z"/><text text-anchor="middle" pointer-events="none" font-size="8px" fill="#000000" x="101.47215280452694" y="3" font-family="sans-serif">ROUTED_STANDBY</text></g><g class="relationship" transform="translate(232.45520032810393 -31.77013329964157) rotate(417.9291543602357)"><path class="outline" fill="#A5ABB6" stroke="none" d="M 25 0.5 L 35.5596716605547 0.5 L 35.5596716605547 -0.5 L 25 -0.5 Z M 75.3370154105547 0.5 L 85.8966870711094 0.5 L 85.8966870711094 3.5 L 92.8966870711094 0 L 85.8966870711094 -3.5 L 85.8966870711094 -0.5 L 75.3370154105547 -0.5 Z"/><text text-anchor="middle" pointer-events="none" font-size="8px" fill="#000000" x="55.4483435355547" y="3" font-family="sans-serif">ROUTED</text></g><g class="relationship" transform="translate(412.0911354014458 65.96707072072347) rotate(538.9389977809764)"><path class="outline" fill="#A5ABB6" stroke="none" d="M 25 0.5 L 27.579131312292326 0.5 L 27.579131312292326 -0.5 L 25 -0.5 Z M 82.47756881229233 0.5 L 85.05670012458465 0.5 L 85.05670012458465 3.5 L 92.05670012458465 0 L 85.05670012458465 -3.5 L 85.05670012458465 -0.5 L 82.47756881229233 -0.5 Z"/><text text-anchor="middle" pointer-events="none" font-size="8px" fill="#000000" x="55.028350062292326" y="3" transform="rotate(180 55.028350062292326 0)" font-family="sans-serif">ROUTED_BY</text></g><g class="relationship" transform="translate(14.669296827209847 -99.38225917822761) rotate(388.22835396613186)"><path class="outline" fill="#A5ABB6" stroke="none" d="M 25 0.5 L 37.75769097434339 0.5 L 37.75769097434339 -0.5 L 25 -0.5 Z M 77.53503472434339 0.5 L 90.29272569868678 0.5 L 90.29272569868678 3.5 L 97.29272569868678 0 L 90.29272569868678 -3.5 L 90.29272569868678 -0.5 L 77.53503472434339 -0.5 Z"/><text text-anchor="middle" pointer-events="none" font-size="8px" fill="#000000" x="57.64636284934339" y="3" font-family="sans-serif">ROUTED</text></g><g class="relationship" transform="translate(14.669296827209847 -99.38225917822761) rotate(511.2354102888081)"><path class="outline" fill="#A5ABB6" stroke="none" d="M 25 0.5 L 36.61720203423943 0.5 L 36.61720203423943 -0.5 L 25 -0.5 Z M 76.39454578423943 0.5 L 88.01174781847887 0.5 L 88.01174781847887 3.5 L 95.01174781847887 0 L 88.01174781847887 -3.5 L 88.01174781847887 -0.5 L 76.39454578423943 -0.5 Z"/><text text-anchor="middle" pointer-events="none" font-size="8px" fill="#000000" x="56.50587390923943" y="3" transform="rotate(180 56.50587390923943 0)" font-family="sans-serif">ROUTED</text></g><g class="relationship" transform="translate(-282.25217083718076 77.56106487270449) rotate(328.130623808046)"><path class="outline" fill="#A5ABB6" stroke="none" d="M 25 0.5 L 81.92552630486566 0.5 L 81.92552630486566 -0.5 L 25 -0.5 Z M 136.82396380486566 0.5 L 193.7494901097313 0.5 L 193.7494901097313 3.5 L 200.7494901097313 0 L 193.7494901097313 -3.5 L 193.7494901097313 -0.5 L 136.82396380486566 -0.5 Z"/><text text-anchor="middle" pointer-events="none" font-size="8px" fill="#000000" x="109.37474505486566" y="3" font-family="sans-serif">ROUTED_BY</text></g><g class="relationship" transform="translate(6.83100227654918 248.3671036657206) rotate(208.5172635445868)"><path class="outline" fill="#A5ABB6" stroke="none" d="M 25 0.5 L 39.5909743812061 0.5 L 39.5909743812061 -0.5 L 25 -0.5 Z M 79.36831813120611 0.5 L 93.9592925124122 0.5 L 93.9592925124122 3.5 L 100.9592925124122 0 L 93.9592925124122 -3.5 L 93.9592925124122 -0.5 L 79.36831813120611 -0.5 Z"/><text text-anchor="middle" pointer-events="none" font-size="8px" fill="#000000" x="59.4796462562061" y="3" transform="rotate(180 59.4796462562061 0)" font-family="sans-serif">ROUTED</text></g><g class="relationship" transform="translate(6.83100227654918 248.3671036657206) rotate(335.70269299460074)"><path class="outline" fill="#A5ABB6" stroke="none" d="M 25 0.5 L 40.69269772077965 0.5 L 40.69269772077965 -0.5 L 25 -0.5 Z M 80.47004147077965 0.5 L 96.1627391915593 0.5 L 96.1627391915593 3.5 L 103.1627391915593 0 L 96.1627391915593 -3.5 L 96.1627391915593 -0.5 L 80.47004147077965 -0.5 Z"/><text text-anchor="middle" pointer-events="none" font-size="8px" fill="#000000" x="60.58136959577965" y="3" font-family="sans-serif">ROUTED</text></g><g class="relationship" transform="translate(217.83726774085807 151.8654826049681) rotate(312.68247807252874)"><path class="outline" fill="#A5ABB6" stroke="none" d="M 25 0.5 L 33.56166243274467 0.5 L 33.56166243274467 -0.5 L 25 -0.5 Z M 73.33900618274467 0.5 L 81.90066861548934 0.5 L 81.90066861548934 3.5 L 88.90066861548934 0 L 81.90066861548934 -3.5 L 81.90066861548934 -0.5 L 73.33900618274467 -0.5 Z"/><text text-anchor="middle" pointer-events="none" font-size="8px" fill="#000000" x="53.45033430774467" y="3" font-family="sans-serif">ROUTED</text></g><g class="relationship" transform="translate(217.83726774085807 151.8654826049681) rotate(515.0789613983658)"><path class="outline" fill="#A5ABB6" stroke="none" d="M 25 0.5 L 28.544811554524074 0.5 L 28.544811554524074 -0.5 L 25 -0.5 Z M 68.32215530452407 0.5 L 71.86696685904815 0.5 L 71.86696685904815 3.5 L 78.86696685904815 0 L 71.86696685904815 -3.5 L 71.86696685904815 -0.5 L 68.32215530452407 -0.5 Z"/><text text-anchor="middle" pointer-events="none" font-size="8px" fill="#000000" x="48.433483429524074" y="3" transform="rotate(180 48.433483429524074 0)" font-family="sans-serif">ROUTED</text></g><g class="relationship" transform="translate(19.033355663789585 9.317235090955378) rotate(420.6875558315387)"><path class="outline" fill="#A5ABB6" stroke="none" d="M 25 0.5 L 83.44760414175609 0.5 L 83.44760414175609 -0.5 L 25 -0.5 Z M 123.22494789175609 0.5 L 181.67255203351218 0.5 L 181.67255203351218 3.5 L 188.67255203351218 0 L 181.67255203351218 -3.5 L 181.67255203351218 -0.5 L 123.22494789175609 -0.5 Z"/><text text-anchor="middle" pointer-events="none" font-size="8px" fill="#000000" x="103.33627601675609" y="3" font-family="sans-serif">ROUTED</text></g><g class="relationship" transform="translate(19.033355663789585 9.317235090955378) rotate(204.93834500011673)"><path class="outline" fill="#A5ABB6" stroke="none" d="M 25 0.5 L 37.027877752266726 0.5 L 37.027877752266726 -0.5 L 25 -0.5 Z M 76.80522150226673 0.5 L 88.83309925453345 0.5 L 88.83309925453345 3.5 L 95.83309925453345 0 L 88.83309925453345 -3.5 L 88.83309925453345 -0.5 L 76.80522150226673 -0.5 Z"/><text text-anchor="middle" pointer-events="none" font-size="8px" fill="#000000" x="56.916549627266726" y="3" transform="rotate(180 56.916549627266726 0)" font-family="sans-serif">ROUTED</text></g><g class="relationship" transform="translate(123.64142149280777 195.6317864712106) rotate(181.86328666973634)"><path class="outline" fill="#A5ABB6" stroke="none" d="M 25 0.5 L 100.63594778921384 0.5 L 100.63594778921384 -0.5 L 25 -0.5 Z M 119.97188528921384 0.5 L 195.6078330784277 0.5 L 195.6078330784277 3.5 L 202.6078330784277 0 L 195.6078330784277 -3.5 L 195.6078330784277 -0.5 L 119.97188528921384 -0.5 Z"/><text text-anchor="middle" pointer-events="none" font-size="8px" fill="#000000" x="110.30391653921384" y="3" transform="rotate(180 110.30391653921384 0)" font-family="sans-serif">NEI</text></g><g class="relationship" transform="translate(122.41768664792177 -41.53940957814177) rotate(494.5594132946908)"><path class="outline" fill="#A5ABB6" stroke="none" d="M 25 0.5 L 148.0692836360022 0.5 L 148.0692836360022 -0.5 L 25 -0.5 Z M 167.4052211360022 0.5 L 290.4745047720044 0.5 L 290.4745047720044 3.5 L 297.4745047720044 0 L 290.4745047720044 -3.5 L 290.4745047720044 -0.5 L 167.4052211360022 -0.5 Z"/><text text-anchor="middle" pointer-events="none" font-size="8px" fill="#000000" x="157.7372523860022" y="3" transform="rotate(180 157.7372523860022 0)" font-family="sans-serif">NEI</text></g><g class="relationship" transform="translate(-103.84606520817749 188.2311734475168) rotate(273.3146015400464)"><path class="outline" fill="#A5ABB6" stroke="none" d="M 24.018736134675446,6.953439040707552 L 24.277555179777966,5.987513214418485 A 347.6550361056852 347.6550361056852 0 0 0 93.96486743482117,17.240836991451715 L 93.90649798779052,18.239132041851803 A 348.6550361056852 348.6550361056852 0 0 1 24.018736134675446,6.953439040707552 Z M 129.2847763330345,18.509569055329848 L 129.2416750577707,17.510498347086127 A 347.6550361056852 347.6550361056852 0 0 0 199.09287792927284,7.323828490510367 L 198.36081105721047,4.414519621581387 L 206.00327643545086,6.100557267186349 L 200.06896709202266,11.202906982415676 L 199.33690021996028,8.293598113486695 A 348.6550361056852 348.6550361056852 0 0 1 129.2847763330345,18.509569055329848"/><text text-anchor="middle" pointer-events="none" font-size="8px" fill="#000000" x="111.5960266352987" y="21.323399864160876" font-family="sans-serif">NEI_EQ</text></g><g class="relationship" transform="translate(-103.84606520817749 188.2311734475168) rotate(273.3146015400464)"><path class="outline" fill="#A5ABB6" stroke="none" d="M 24.018736134675446,-6.953439040707552 L 24.277555179777966,-5.987513214418485 A 347.6550361056852 347.6550361056852 0 0 1 93.96486743482117,-17.240836991451715 L 93.90649798779052,-18.239132041851803 A 348.6550361056852 348.6550361056852 0 0 0 24.018736134675446,-6.953439040707552 Z M 129.28477633303436,-18.509569055329848 L 129.24167505777058,-17.510498347086127 A 347.6550361056852 347.6550361056852 0 0 1 199.09287792927284,-7.323828490510367 L 198.36081105721047,-4.414519621581387 L 206.00327643545086,-6.100557267186349 L 200.06896709202266,-11.202906982415676 L 199.33690021996028,-8.293598113486695 A 348.6550361056852 348.6550361056852 0 0 0 129.28477633303436,-18.509569055329848"/><text text-anchor="middle" pointer-events="none" font-size="8px" fill="#000000" x="111.59602663529861" y="-15.323399864160876" font-family="sans-serif">NEI_EQ</text></g><g class="relationship" transform="translate(122.41768664792177 -41.53940957814177) rotate(180.02468754795592)"><path class="outline" fill="#A5ABB6" stroke="none" d="M 25 0.5 L 93.30764007977233 0.5 L 93.30764007977233 -0.5 L 25 -0.5 Z M 112.64357757977233 0.5 L 180.95121765954465 0.5 L 180.95121765954465 3.5 L 187.95121765954465 0 L 180.95121765954465 -3.5 L 180.95121765954465 -0.5 L 112.64357757977233 -0.5 Z"/><text text-anchor="middle" pointer-events="none" font-size="8px" fill="#000000" x="102.97560882977233" y="3" transform="rotate(180 102.97560882977233 0)" font-family="sans-serif">NEI</text></g><g class="relationship" transform="translate(122.41768664792177 -41.53940957814177) rotate(392.42728428088657)"><path class="outline" fill="#A5ABB6" stroke="none" d="M 25 0.5 L 89.09622290685405 0.5 L 89.09622290685405 -0.5 L 25 -0.5 Z M 108.43216040685405 0.5 L 172.5283833137081 0.5 L 172.5283833137081 3.5 L 179.5283833137081 0 L 172.5283833137081 -3.5 L 172.5283833137081 -0.5 L 108.43216040685405 -0.5 Z"/><text text-anchor="middle" pointer-events="none" font-size="8px" fill="#000000" x="98.76419165685405" y="3" font-family="sans-serif">NEI</text></g><g class="relationship" transform="translate(123.64142149280777 195.6317864712106) rotate(269.7043729558253)"><path class="outline" fill="#A5ABB6" stroke="none" d="M 24.018736134675446,6.953439040707552 L 24.277555179777966,5.987513214418485 A 361.1344288199943 361.1344288199943 0 0 0 97.42718867706176,17.720808857642396 L 97.37092476838393,18.719224789296277 A 362.1344288199943 362.1344288199943 0 0 1 24.018736134675446,6.953439040707552 Z M 132.74848142171376,18.98197707542124 L 132.70705355121277,17.982835578161826 A 361.1344288199943 361.1344288199943 0 0 0 206.02289624762332,7.337352162486158 L 205.2895665011177,4.4283613610414445 L 212.93276307541194,6.111081220880418 L 207.0006692429642,11.216006564412442 L 206.26733949645856,8.30701576296773 A 362.1344288199943 362.1344288199943 0 0 1 132.74848142171376,18.98197707542124"/><text text-anchor="middle" pointer-events="none" font-size="8px" fill="#000000" x="115.06020594038237" y="21.78289670973402" transform="rotate(180 115.06020594038237 18.78289670973402)" font-family="sans-serif">NEI_EQ</text></g><g class="relationship" transform="translate(123.64142149280777 195.6317864712106) rotate(269.7043729558253)"><path class="outline" fill="#A5ABB6" stroke="none" d="M 24.018736134675446,-6.953439040707552 L 24.277555179777966,-5.987513214418485 A 361.1344288199943 361.1344288199943 0 0 1 97.42718867706176,-17.720808857642396 L 97.37092476838393,-18.719224789296277 A 362.1344288199943 362.1344288199943 0 0 0 24.018736134675446,-6.953439040707552 Z M 132.74848142171373,-18.98197707542124 L 132.70705355121277,-17.982835578161826 A 361.1344288199943 361.1344288199943 0 0 1 206.02289624762332,-7.337352162486158 L 205.2895665011177,-4.4283613610414445 L 212.93276307541194,-6.111081220880418 L 207.0006692429642,-11.216006564412442 L 206.26733949645856,-8.30701576296773 A 362.1344288199943 362.1344288199943 0 0 0 132.74848142171373,-18.98197707542124"/><text text-anchor="middle" pointer-events="none" font-size="8px" fill="#000000" x="115.06020594038237" y="-15.782896709734018" transform="rotate(180 115.06020594038237 -18.78289670973402)" font-family="sans-serif">NEI_EQ</text></g><g class="relationship" transform="translate(123.64142149280777 195.6317864712106) rotate(323.35810052443526)"><path class="outline" fill="#A5ABB6" stroke="none" d="M 25 0.5 L 93.6472660842673 0.5 L 93.6472660842673 -0.5 L 25 -0.5 Z M 112.9832035842673 0.5 L 181.6304696685346 0.5 L 181.6304696685346 3.5 L 188.6304696685346 0 L 181.6304696685346 -3.5 L 181.6304696685346 -0.5 L 112.9832035842673 -0.5 Z"/><text text-anchor="middle" pointer-events="none" font-size="8px" fill="#000000" x="103.3152348342673" y="3" font-family="sans-serif">NEI</text></g><g class="relationship" transform="translate(123.64142149280777 195.6317864712106) rotate(227.92774391530008)"><path class="outline" fill="#A5ABB6" stroke="none" d="M 25 0.5 L 146.64802726157558 0.5 L 146.64802726157558 -0.5 L 25 -0.5 Z M 165.98396476157558 0.5 L 287.63199202315116 0.5 L 287.63199202315116 3.5 L 294.63199202315116 0 L 287.63199202315116 -3.5 L 287.63199202315116 -0.5 L 165.98396476157558 -0.5 Z"/><text text-anchor="middle" pointer-events="none" font-size="8px" fill="#000000" x="156.31599601157558" y="3" transform="rotate(180 156.31599601157558 0)" font-family="sans-serif">NEI</text></g><g class="relationship" transform="translate(412.0911354014458 65.96707072072347) rotate(428.93760110919806)"><path class="outline" fill="#A5ABB6" stroke="none" d="M 25 0.5 L 55.653706706772056 0.5 L 55.653706706772056 -0.5 L 25 -0.5 Z M 86.12245670677206 0.5 L 116.77616341354411 0.5 L 116.77616341354411 3.5 L 123.77616341354411 0 L 116.77616341354411 -3.5 L 116.77616341354411 -0.5 L 86.12245670677206 -0.5 Z"/><text text-anchor="middle" pointer-events="none" font-size="8px" fill="#000000" x="70.88808170677206" y="3" font-family="sans-serif">L3toL2</text></g><g class="relationship" transform="translate(465.5589776827474 204.80343714478195) rotate(218.71411857497992)"><path class="outline" fill="#A5ABB6" stroke="none" d="M 24.018736134675446,6.953439040707552 L 24.277555179777966,5.987513214418485 A 324.8157832539742 324.8157832539742 0 0 0 91.20954520443647,16.602986274425405 L 91.15678754389519,17.601593619308346 A 325.8157832539742 325.8157832539742 0 0 1 24.018736134675446,6.953439040707552 Z M 120.30023504953483,17.83596977576218 L 120.26354508659213,16.836643079121245 A 324.8157832539742 324.8157832539742 0 0 0 187.35760938970606,7.299028480160752 L 186.62785842844693,4.389137840541904 L 194.26897937569322,6.081258010492616 L 188.33061067138487,11.178882666319216 L 187.60085971012575,8.268992026700369 A 325.8157832539742 325.8157832539742 0 0 1 120.30023504953483,17.83596977576218"/><text text-anchor="middle" pointer-events="none" font-size="8px" fill="#000000" x="105.72991029940252" y="20.54482304064487" transform="rotate(180 105.72991029940252 17.54482304064487)" font-family="sans-serif">ROOT</text></g><g class="relationship" transform="translate(465.5589776827474 204.80343714478195) rotate(218.71411857497992)"><path class="outline" fill="#A5ABB6" stroke="none" d="M 24.018736134675446,-6.953439040707552 L 24.277555179777966,-5.987513214418485 A 324.8157832539742 324.8157832539742 0 0 1 86.54938278231765,-16.323186939376512 L 86.48227802824714,-17.320932874963887 A 325.8157832539742 325.8157832539742 0 0 0 24.018736134675446,-6.953439040707552 Z M 124.97865388768592,-17.63052674197604 L 124.92760483264698,-16.631830595002555 A 324.8157832539742 324.8157832539742 0 0 1 187.35760938970606,-7.299028480160752 L 186.62785842844693,-4.389137840541904 L 194.26897937569322,-6.081258010492616 L 188.33061067138487,-11.178882666319216 L 187.60085971012575,-8.268992026700369 A 325.8157832539742 325.8157832539742 0 0 0 124.97865388768592,-17.63052674197604"/><text text-anchor="middle" pointer-events="none" font-size="8px" fill="#000000" x="105.72991029940242" y="-14.544823040644872" transform="rotate(180 105.72991029940242 -17.54482304064487)" font-family="sans-serif">Switched</text></g><g class="relationship" transform="translate(-282.25217083718076 77.56106487270449) rotate(357.84826835056435)"><path class="outline" fill="#A5ABB6" stroke="none" d="M 25 0.5 L 44.57886941151157 0.5 L 44.57886941151157 -0.5 L 25 -0.5 Z M 75.04761941151156 0.5 L 94.62648882302314 0.5 L 94.62648882302314 3.5 L 101.62648882302314 0 L 94.62648882302314 -3.5 L 94.62648882302314 -0.5 L 75.04761941151156 -0.5 Z"/><text text-anchor="middle" pointer-events="none" font-size="8px" fill="#000000" x="59.81324441151157" y="3" font-family="sans-serif">L3toL2</text></g><g class="relationship" transform="translate(-155.71496618639077 72.80674990508854) rotate(299.6649386603788)"><path class="outline" fill="#A5ABB6" stroke="none" d="M 24.018736134675446,6.953439040707552 L 24.277555179777966,5.987513214418485 A 154.76909395856356 154.76909395856356 0 0 0 47.83333935955348,10.378942037694117 L 47.72671984975406,11.373241932157612 A 155.76909395856356 155.76909395856356 0 0 1 24.018736134675446,6.953439040707552 Z M 76.884588636316,11.754767661556343 L 76.80402166357531,10.75801846396277 A 154.76909395856356 154.76909395856356 0 0 0 100.46664364122135,6.984434414669995 L 99.76627320367045,4.067332899431839 L 107.3899422497022,5.836420312924231 L 101.40047089128923,10.873903101654204 L 100.70010045373833,7.956801586416047 A 155.76909395856356 155.76909395856356 0 0 1 76.884588636316,11.754767661556343"/><text text-anchor="middle" pointer-events="none" font-size="8px" fill="#000000" x="62.303248635255144" y="14.747851889183693" font-family="sans-serif">ROOT</text></g><g class="relationship" transform="translate(-155.71496618639077 72.80674990508854) rotate(425.8020202396153)"><path class="outline" fill="#A5ABB6" stroke="none" d="M 25 0.5 L 40.541129220158695 0.5 L 40.541129220158695 -0.5 L 25 -0.5 Z M 79.0020667201587 0.5 L 94.54319594031739 0.5 L 94.54319594031739 3.5 L 101.54319594031739 0 L 94.54319594031739 -3.5 L 94.54319594031739 -0.5 L 79.0020667201587 -0.5 Z"/><text text-anchor="middle" pointer-events="none" font-size="8px" fill="#000000" x="59.771597970158695" y="3" font-family="sans-serif">Switched</text></g><g class="relationship" transform="translate(-155.71496618639077 72.80674990508854) rotate(299.6649386603788)"><path class="outline" fill="#A5ABB6" stroke="none" d="M 24.018736134675446,-6.953439040707552 L 24.277555179777966,-5.987513214418485 A 154.76909395856356 154.76909395856356 0 0 1 43.20736377531129,-9.812321654717636 L 43.07085473481861,-10.80296047985209 A 155.76909395856356 155.76909395856356 0 0 0 24.018736134675446,-6.953439040707552 Z M 81.55378125311555,-11.306502995828339 L 81.44323919033523,-10.3126315492336 A 154.76909395856356 154.76909395856356 0 0 1 100.46664364122135,-6.984434414669995 L 99.76627320367045,-4.067332899431839 L 107.3899422497022,-5.836420312924231 L 101.40047089128923,-10.873903101654204 L 100.70010045373833,-7.956801586416047 A 155.76909395856356 155.76909395856356 0 0 0 81.55378125311555,-11.306502995828339"/><text text-anchor="middle" pointer-events="none" font-size="8px" fill="#000000" x="62.3032486352551" y="-8.747851889183693" font-family="sans-serif">Switched</text></g><g class="relationship" transform="translate(465.5589776827474 204.80343714478195) rotate(180.47425945183545)"><path class="outline" fill="#A5ABB6" stroke="none" d="M 25 0.5 L 62.406492059317586 0.5 L 62.406492059317586 -0.5 L 25 -0.5 Z M 100.86742955931759 0.5 L 138.27392161863517 0.5 L 138.27392161863517 3.5 L 145.27392161863517 0 L 138.27392161863517 -3.5 L 138.27392161863517 -0.5 L 100.86742955931759 -0.5 Z"/><text text-anchor="middle" pointer-events="none" font-size="8px" fill="#000000" x="81.63696080931759" y="3" transform="rotate(180 81.63696080931759 0)" font-family="sans-serif">Switched</text></g><g class="relationship" transform="translate(465.5589776827474 204.80343714478195) rotate(270.8913304433631)"><path class="outline" fill="#A5ABB6" stroke="none" d="M 25 0.5 L 92.10128248306467 0.5 L 92.10128248306467 -0.5 L 25 -0.5 Z M 130.56221998306467 0.5 L 197.66350246612933 0.5 L 197.66350246612933 3.5 L 204.66350246612933 0 L 197.66350246612933 -3.5 L 197.66350246612933 -0.5 L 130.56221998306467 -0.5 Z"/><text text-anchor="middle" pointer-events="none" font-size="8px" fill="#000000" x="111.33175123306467" y="3" font-family="sans-serif">Switched</text></g><g class="relationship" transform="translate(295.05450499116984 68.13460071253499) rotate(449.8998679497421)"><path class="outline" fill="#A5ABB6" stroke="none" d="M 24.018736134675446,-6.953439040707552 L 24.277555179777966,-5.987513214418485 A 161.80154546053285 161.80154546053285 0 0 1 54.462934977928185,-11.07777857633991 L 54.39067397658374,-12.075164333048264 A 162.80154546053285 162.80154546053285 0 0 0 24.018736134675446,-6.953439040707552 Z M 73.77313410083407,-12.322422273557294 L 73.72633935200477,-11.323517747848257 A 161.80154546053285 161.80154546053285 0 0 1 104.03174601805067,-7.00492054285992 L 103.32946219427895,-4.08827907862943 L 110.95429007188376,-5.85236519809766 L 104.9681244497463,-10.893775828500573 L 104.26584062597458,-7.977134364270083 A 162.80154546053285 162.80154546053285 0 0 0 73.77313410083407,-12.322422273557294"/><text text-anchor="middle" pointer-events="none" font-size="8px" fill="#000000" x="64.08459866319046" y="-8.987562669188605" font-family="sans-serif">NEI</text></g><g class="relationship" transform="translate(295.05450499116984 68.13460071253499) rotate(449.8998679497421)"><path class="outline" fill="#A5ABB6" stroke="none" d="M 24.018736134675446,6.953439040707552 L 24.277555179777966,5.987513214418485 A 161.80154546053285 161.80154546053285 0 0 0 54.46293497792827,11.07777857633991 L 54.39067397658383,12.075164333048264 A 162.80154546053285 162.80154546053285 0 0 1 24.018736134675446,6.953439040707552 Z M 73.77313410083413,12.322422273557294 L 73.72633935200481,11.323517747848257 A 161.80154546053285 161.80154546053285 0 0 0 104.03174601805067,7.00492054285992 L 103.32946219427895,4.08827907862943 L 110.95429007188376,5.85236519809766 L 104.9681244497463,10.893775828500573 L 104.26584062597458,7.977134364270083 A 162.80154546053285 162.80154546053285 0 0 1 73.77313410083413,12.322422273557294"/><text text-anchor="middle" pointer-events="none" font-size="8px" fill="#000000" x="64.08459866319052" y="14.987562669188634" font-family="sans-serif">NEI</text></g><g class="relationship" transform="translate(295.05450499116984 68.13460071253499) rotate(331.895300782021)"><path class="outline" fill="#A5ABB6" stroke="none" d="M 24.018736134675446,-6.953439040707552 L 24.277555179777966,-5.987513214418485 A 283.5372441791288 283.5372441791288 0 0 1 85.49847078951808,-15.387770447441824 L 85.45557017088888,-16.386849792099326 A 284.5372441791288 284.5372441791288 0 0 0 24.018736134675446,-6.953439040707552 Z M 104.82104245997681,-16.55874435518632 L 104.79588354444923,-15.559060890799003 A 283.5372441791288 283.5372441791288 0 0 1 166.17401944577463,-7.247034818874243 L 165.44912393151967,-4.335930819802234 L 173.0874113626518,-6.040795952124677 L 167.14054679811457,-11.128506817636922 L 166.4156512838596,-8.217402818564914 A 284.5372441791288 284.5372441791288 0 0 0 104.82104245997681,-16.55874435518632"/><text text-anchor="middle" pointer-events="none" font-size="8px" fill="#000000" x="95.14128144755122" y="-13.137621617478715" font-family="sans-serif">NEI</text></g><g class="relationship" transform="translate(295.05450499116984 68.13460071253499) rotate(331.895300782021)"><path class="outline" fill="#A5ABB6" stroke="none" d="M 24.018736134675446,6.953439040707552 L 24.277555179777966,5.987513214418485 A 283.5372441791288 283.5372441791288 0 0 0 85.4984707895182,15.387770447441824 L 85.455570170889,16.386849792099326 A 284.5372441791288 284.5372441791288 0 0 1 24.018736134675446,6.953439040707552 Z M 104.82104245997698,16.55874435518632 L 104.7958835444494,15.559060890799003 A 283.5372441791288 283.5372441791288 0 0 0 166.17401944577463,7.247034818874243 L 165.44912393151967,4.335930819802234 L 173.0874113626518,6.040795952124677 L 167.14054679811457,11.128506817636922 L 166.4156512838596,8.217402818564914 A 284.5372441791288 284.5372441791288 0 0 1 104.82104245997698,16.55874435518632"/><text text-anchor="middle" pointer-events="none" font-size="8px" fill="#000000" x="95.14128144755136" y="19.137621617478715" font-family="sans-serif">NEI</text></g></g><g class="layer nodes"><g class="node" transform="translate(-103.84606520817749,188.2311734475168)"><circle class="outline" cx="0" cy="0" r="25" fill="#68BDF6" stroke="#5CA8DB" stroke-width="2px"/><text text-anchor="middle" pointer-events="none" y="5" font-size="10px" fill="#FFFFFF" font-family="sans-serif"> CR3</text></g><g class="node" transform="translate(122.41768664792177,-41.53940957814177)"><circle class="outline" cx="0" cy="0" r="25" fill="#68BDF6" stroke="#5CA8DB" stroke-width="2px"/><text text-anchor="middle" pointer-events="none" y="5" font-size="10px" fill="#FFFFFF" font-family="sans-serif"> Core</text></g><g class="node" transform="translate(19.319952319520524,127.75200652151068)"><circle class="outline" cx="0" cy="0" r="25" fill="#FFD86E" stroke="#EDBA39" stroke-width="2px"/><text text-anchor="middle" pointer-events="none" y="5" font-size="10px" fill="#604A0E" font-family="sans-serif"> 2080</text></g><g class="node" transform="translate(295.05450499116984,68.13460071253499)"><circle class="outline" cx="0" cy="0" r="25" fill="#68BDF6" stroke="#5CA8DB" stroke-width="2px"/><text text-anchor="middle" pointer-events="none" y="5" font-size="10px" fill="#FFFFFF" font-family="sans-serif"> MDCMDF</text></g><g class="node" transform="translate(412.0911354014458,65.96707072072347)"><circle class="outline" cx="0" cy="0" r="25" fill="#FFD86E" stroke="#EDBA39" stroke-width="2px"/><text text-anchor="middle" pointer-events="none" y="5" font-size="10px" fill="#604A0E" font-family="sans-serif"> 200</text></g><g class="node" transform="translate(232.45520032810393,-31.77013329964157)"><circle class="outline" cx="0" cy="0" r="25" fill="#FFD86E" stroke="#EDBA39" stroke-width="2px"/><text text-anchor="middle" pointer-events="none" y="5" font-size="10px" fill="#604A0E" font-family="sans-serif"> 2200</text></g><g class="node" transform="translate(-282.25217083718076,77.56106487270449)"><circle class="outline" cx="0" cy="0" r="25" fill="#FFD86E" stroke="#EDBA39" stroke-width="2px"/><text text-anchor="middle" pointer-events="none" y="5" font-size="10px" fill="#604A0E" font-family="sans-serif"> 110</text></g><g class="node" transform="translate(-90.53351124371201,-41.6311657821806)"><circle class="outline" cx="0" cy="0" r="25" fill="#68BDF6" stroke="#5CA8DB" stroke-width="2px"/><text text-anchor="middle" pointer-events="none" y="5" font-size="10px" fill="#FFFFFF" font-family="sans-serif"> CR3</text></g><g class="node" transform="translate(14.669296827209847,-99.38225917822761)"><circle class="outline" cx="0" cy="0" r="25" fill="#FFD86E" stroke="#EDBA39" stroke-width="2px"/><text text-anchor="middle" pointer-events="none" y="5" font-size="10px" fill="#604A0E" font-family="sans-serif"> 2072</text></g><g class="node" transform="translate(123.64142149280777,195.6317864712106)"><circle class="outline" cx="0" cy="0" r="25" fill="#68BDF6" stroke="#5CA8DB" stroke-width="2px"/><text text-anchor="middle" pointer-events="none" y="5" font-size="10px" fill="#FFFFFF" font-family="sans-serif"> Core</text></g><g class="node" transform="translate(6.83100227654918,248.3671036657206)"><circle class="outline" cx="0" cy="0" r="25" fill="#FFD86E" stroke="#EDBA39" stroke-width="2px"/><text text-anchor="middle" pointer-events="none" y="5" font-size="10px" fill="#604A0E" font-family="sans-serif"> 3080</text></g><g class="node" transform="translate(217.83726774085807,151.8654826049681)"><circle class="outline" cx="0" cy="0" r="25" fill="#FFD86E" stroke="#EDBA39" stroke-width="2px"/><text text-anchor="middle" pointer-events="none" y="5" font-size="10px" fill="#604A0E" font-family="sans-serif"> 3200</text></g><g class="node" transform="translate(19.033355663789585,9.317235090955378)"><circle class="outline" cx="0" cy="0" r="25" fill="#FFD86E" stroke="#EDBA39" stroke-width="2px"/><text text-anchor="middle" pointer-events="none" y="5" font-size="10px" fill="#604A0E" font-family="sans-serif"> 3072</text></g><g class="node" transform="translate(465.5589776827474,204.80343714478195)"><circle class="outline" cx="0" cy="0" r="25" fill="#6DCE9E" stroke="#60B58B" stroke-width="2px"/><text text-anchor="middle" pointer-events="none" y="5" font-size="10px" fill="#FFFFFF" font-family="sans-serif"> MDCMD…</text></g><g class="node" transform="translate(-155.71496618639077,72.80674990508854)"><circle class="outline" cx="0" cy="0" r="25" fill="#6DCE9E" stroke="#60B58B" stroke-width="2px"/><text text-anchor="middle" pointer-events="none" y="5" font-size="10px" fill="#FFFFFF" font-family="sans-serif"> CR3-110</text></g><g class="node" transform="translate(295.29088920395606,203.3940297630809)"><circle class="outline" cx="0" cy="0" r="25" fill="#68BDF6" stroke="#5CA8DB" stroke-width="2px"/><text text-anchor="middle" pointer-events="none" y="5" font-size="10px" fill="#FFFFFF" font-family="sans-serif"> MDCMDF</text></g><g class="node" transform="translate(469.1316285222751,-24.83227551983954)"><circle class="outline" cx="0" cy="0" r="25" fill="#68BDF6" stroke="#5CA8DB" stroke-width="2px"/><text text-anchor="middle" pointer-events="none" y="5" font-size="10px" fill="#FFFFFF" font-family="sans-serif"> MDCMDF</text></g></g></svg>