<svg xmlns="http://www.w3.org/2000/svg" width="439.15191650390625" height="453.9135437011719" viewBox="-272.4509582519531 -224.8697967529297 439.15191650390625 453.9135437011719"><title>Neo4j Graph Visualization</title><desc>Created using Neo4j (http://www.neo4j.com/)</desc><g class="layer relationships"><g class="relationship" transform="translate(5.498256322237115 65.5744941887628) rotate(358.37244007213303)"><path class="outline" fill="#A5ABB6" stroke="none" d="M 25 0.5 L 29.668151269793697 0.5 L 29.668151269793697 -0.5 L 25 -0.5 Z M 95.2189325197937 0.5 L 99.8870837895874 0.5 L 99.8870837895874 3.5 L 106.8870837895874 0 L 99.8870837895874 -3.5 L 99.8870837895874 -0.5 L 95.2189325197937 -0.5 Z"/><text text-anchor="middle" pointer-events="none" font-size="8px" fill="#000000" x="62.4435418947937" y="3" font-family="sans-serif">SWITCHED_FW</text></g><g class="relationship" transform="translate(135.6531705865901 -74.17365627190247) rotate(269.250514556873)"><path class="outline" fill="#A5ABB6" stroke="none" d="M 25 0.5 L 27.04316705526528 0.5 L 27.04316705526528 -0.5 L 25 -0.5 Z M 83.70722955526529 0.5 L 85.75039661053056 0.5 L 85.75039661053056 3.5 L 92.75039661053056 0 L 85.75039661053056 -3.5 L 85.75039661053056 -0.5 L 83.70722955526529 -0.5 Z"/><text text-anchor="middle" pointer-events="none" font-size="8px" fill="#000000" x="55.37519830526528" y="3" transform="rotate(180 55.37519830526528 0)" font-family="sans-serif">ROUTED_FW</text></g><g class="relationship" transform="translate(3.649772540185772 -191.2179207880085) rotate(359.69431364000957)"><path class="outline" fill="#A5ABB6" stroke="none" d="M 25 0.5 L 33.40047234425836 0.5 L 33.40047234425836 -0.5 L 25 -0.5 Z M 90.06453484425836 0.5 L 98.46500718851672 0.5 L 98.46500718851672 3.5 L 105.46500718851672 0 L 98.46500718851672 -3.5 L 98.46500718851672 -0.5 L 90.06453484425836 -0.5 Z"/><text text-anchor="middle" pointer-events="none" font-size="8px" fill="#000000" x="61.73250359425836" y="3" font-family="sans-serif">ROUTED_FW</text></g><g class="relationship" transform="translate(-112.17133615749431 -77.75134658592893) rotate(180.40545316721312)"><path class="outline" fill="#A5ABB6" stroke="none" d="M 25 0.5 L 27.284365226085114 0.5 L 27.284365226085114 -0.5 L 25 -0.5 Z M 92.83514647608511 0.5 L 95.11951170217023 0.5 L 95.11951170217023 3.5 L 102.11951170217023 0 L 95.11951170217023 -3.5 L 95.11951170217023 -0.5 L 92.83514647608511 -0.5 Z"/><text text-anchor="middle" pointer-events="none" font-size="8px" fill="#000000" x="60.059755851085114" y="3" transform="rotate(180 60.059755851085114 0)" font-family="sans-serif">SWITCHED_FW</text></g><g class="relationship" transform="translate(-238.7814094922002 59.20830043685824) rotate(361.632989001979)"><path class="outline" fill="#A5ABB6" stroke="none" d="M 25 0.5 L 41.01046161743262 0.5 L 41.01046161743262 -0.5 L 25 -0.5 Z M 75.45968036743261 0.5 L 91.47014198486524 0.5 L 91.47014198486524 3.5 L 98.47014198486524 0 L 91.47014198486524 -3.5 L 91.47014198486524 -0.5 L 75.45968036743261 -0.5 Z"/><text text-anchor="middle" pointer-events="none" font-size="8px" fill="#000000" x="58.23507099243262" y="3" font-family="sans-serif">VRF_IN</text></g><g class="relationship" transform="translate(-238.7814094922002 59.20830043685824) rotate(269.7895956598927)"><path class="outline" fill="#A5ABB6" stroke="none" d="M 25 0.5 L 32.654674057250176 0.5 L 32.654674057250176 -0.5 L 25 -0.5 Z M 98.20545530725018 0.5 L 105.86012936450035 0.5 L 105.86012936450035 3.5 L 112.86012936450035 0 L 105.86012936450035 -3.5 L 105.86012936450035 -0.5 L 98.20545530725018 -0.5 Z"/><text text-anchor="middle" pointer-events="none" font-size="8px" fill="#000000" x="65.43006468225018" y="3" transform="rotate(180 65.43006468225018 0)" font-family="sans-serif">SWITCHED_FW</text></g><g class="relationship" transform="translate(137.70097859088867 198.82106352291316) rotate(539.4811687380269)"><path class="outline" fill="#A5ABB6" stroke="none" d="M 25 0.5 L 46.78860588691961 0.5 L 46.78860588691961 -0.5 L 25 -0.5 Z M 81.23782463691961 0.5 L 103.02643052383922 0.5 L 103.02643052383922 3.5 L 110.02643052383922 0 L 103.02643052383922 -3.5 L 103.02643052383922 -0.5 L 81.23782463691961 -0.5 Z"/><text text-anchor="middle" pointer-events="none" font-size="8px" fill="#000000" x="64.01321526191961" y="3" transform="rotate(180 64.01321526191961 0)" font-family="sans-serif">VRF_IN</text></g><g class="relationship" transform="translate(135.6531705865901 -74.17365627190247) rotate(180.78003930636777)"><path class="outline" fill="#A5ABB6" stroke="none" d="M 25 0.5 L 43.91354344171583 0.5 L 43.91354344171583 -0.5 L 25 -0.5 Z M 78.36276219171583 0.5 L 97.27630563343166 0.5 L 97.27630563343166 3.5 L 104.27630563343166 0 L 97.27630563343166 -3.5 L 97.27630563343166 -0.5 L 78.36276219171583 -0.5 Z"/><text text-anchor="middle" pointer-events="none" font-size="8px" fill="#000000" x="61.13815281671583" y="3" transform="rotate(180 61.13815281671583 0)" font-family="sans-serif">VRF_IN</text></g><g class="relationship" transform="translate(5.498256322237115 65.5744941887628) rotate(181.34972870196475)"><path class="outline" fill="#A5ABB6" stroke="none" d="M 25 0.5 L 39.721996227419 0.5 L 39.721996227419 -0.5 L 25 -0.5 Z M 74.171214977419 0.5 L 88.893211204838 0.5 L 88.893211204838 3.5 L 95.893211204838 0 L 88.893211204838 -3.5 L 88.893211204838 -0.5 L 74.171214977419 -0.5 Z"/><text text-anchor="middle" pointer-events="none" font-size="8px" fill="#000000" x="56.946605602419" y="3" transform="rotate(180 56.946605602419 0)" font-family="sans-serif">VRF_IN</text></g><g class="relationship" transform="translate(3.649772540185772 -191.2179207880085) rotate(180.9610425421684)"><path class="outline" fill="#A5ABB6" stroke="none" d="M 25 0.5 L 36.59926160265422 0.5 L 36.59926160265422 -0.5 L 25 -0.5 Z M 71.04848035265422 0.5 L 82.64774195530843 0.5 L 82.64774195530843 3.5 L 89.64774195530843 0 L 82.64774195530843 -3.5 L 82.64774195530843 -0.5 L 71.04848035265422 -0.5 Z"/><text text-anchor="middle" pointer-events="none" font-size="8px" fill="#000000" x="53.82387097765422" y="3" transform="rotate(180 53.82387097765422 0)" font-family="sans-serif">VRF_IN</text></g><g class="relationship" transform="translate(-112.17133615749431 -77.75134658592893) rotate(360.87838016062705)"><path class="outline" fill="#A5ABB6" stroke="none" d="M 25 0.5 L 38.56244828681185 0.5 L 38.56244828681185 -0.5 L 25 -0.5 Z M 73.01166703681184 0.5 L 86.5741153236237 0.5 L 86.5741153236237 3.5 L 93.5741153236237 0 L 86.5741153236237 -3.5 L 86.5741153236237 -0.5 L 73.01166703681184 -0.5 Z"/><text text-anchor="middle" pointer-events="none" font-size="8px" fill="#000000" x="55.78705766181185" y="3" font-family="sans-serif">VRF_IN</text></g><g class="relationship" transform="translate(137.70097859088867 198.82106352291316) rotate(269.84573417302954)"><path class="outline" fill="#A5ABB6" stroke="none" d="M 25 0.5 L 32.22110108925011 0.5 L 32.22110108925011 -0.5 L 25 -0.5 Z M 97.77188233925011 0.5 L 104.99298342850022 0.5 L 104.99298342850022 3.5 L 111.99298342850022 0 L 104.99298342850022 -3.5 L 104.99298342850022 -0.5 L 97.77188233925011 -0.5 Z"/><text text-anchor="middle" pointer-events="none" font-size="8px" fill="#000000" x="64.99649171425011" y="3" transform="rotate(180 64.99649171425011 0)" font-family="sans-serif">SWITCHED_FW</text></g><g class="relationship" transform="translate(-243.45095358071268 -195.86980385612353) rotate(361.180161630305)"><path class="outline" fill="#A5ABB6" stroke="none" d="M 25 0.5 L 45.523999427747384 0.5 L 45.523999427747384 -0.5 L 25 -0.5 Z M 79.97321817774738 0.5 L 100.49721760549477 0.5 L 100.49721760549477 3.5 L 107.49721760549477 0 L 100.49721760549477 -3.5 L 100.49721760549477 -0.5 L 79.97321817774738 -0.5 Z"/><text text-anchor="middle" pointer-events="none" font-size="8px" fill="#000000" x="62.748608802747384" y="3" font-family="sans-serif">VRF_IN</text></g><g class="relationship" transform="translate(-115.59363372089834 196.63214153433853) rotate(361.652241810736)"><path class="outline" fill="#A5ABB6" stroke="none" d="M 25 0.5 L 38.43684641730591 0.5 L 38.43684641730591 -0.5 L 25 -0.5 Z M 72.8860651673059 0.5 L 86.32291158461182 0.5 L 86.32291158461182 3.5 L 93.32291158461182 0 L 86.32291158461182 -3.5 L 86.32291158461182 -0.5 L 72.8860651673059 -0.5 Z"/><text text-anchor="middle" pointer-events="none" font-size="8px" fill="#000000" x="55.66145579230591" y="3" font-family="sans-serif">VRF_IN</text></g></g><g class="layer nodes"><g class="node" transform="translate(137.70097859088867,198.82106352291316)"><circle class="outline" cx="0" cy="0" r="25" fill="#FFD86E" stroke="#EDBA39" stroke-width="2px"/><text text-anchor="middle" pointer-events="none" y="5" font-size="10px" fill="#604A0E" font-family="sans-serif"> 0</text></g><g class="node" transform="translate(-110.9818419805565,-193.14085807740202)"><circle class="outline" cx="0" cy="0" r="25" fill="#6DCE9E" stroke="#60B58B" stroke-width="2px"/><text text-anchor="middle" pointer-events="none" y="5" font-size="10px" fill="#FFFFFF" font-family="sans-serif"> default</text></g><g class="node" transform="translate(-115.59363372089834,196.63214153433853)"><circle class="outline" cx="0" cy="0" r="25" fill="#FFD86E" stroke="#EDBA39" stroke-width="2px"/><text text-anchor="middle" pointer-events="none" y="5" font-size="10px" fill="#604A0E" font-family="sans-serif"> 641</text></g><g class="node" transform="translate(135.6531705865901,-74.17365627190247)"><circle class="outline" cx="0" cy="0" r="25" fill="#FFD86E" stroke="#EDBA39" stroke-width="2px"/><text text-anchor="middle" pointer-events="none" y="5" font-size="10px" fill="#604A0E" font-family="sans-serif"> 630</text></g><g class="node" transform="translate(2.680084025626428,200.0437535104076)"><circle class="outline" cx="0" cy="0" r="25" fill="#6DCE9E" stroke="#60B58B" stroke-width="2px"/><text text-anchor="middle" pointer-events="none" y="5" font-size="10px" fill="#FFFFFF" font-family="sans-serif"> guest</text></g><g class="node" transform="translate(3.649772540185772,-191.2179207880085)"><circle class="outline" cx="0" cy="0" r="25" fill="#FFD86E" stroke="#EDBA39" stroke-width="2px"/><text text-anchor="middle" pointer-events="none" y="5" font-size="10px" fill="#604A0E" font-family="sans-serif"> 631</text></g><g class="node" transform="translate(-239.28766500698336,-78.6508993785713)"><circle class="outline" cx="0" cy="0" r="25" fill="#68BDF6" stroke="#5CA8DB" stroke-width="2px"/><text text-anchor="middle" pointer-events="none" y="5" font-size="10px" fill="#FFFFFF" font-family="sans-serif"> External…</text></g><g class="node" transform="translate(-115.3614120653929,62.7268508386089)"><circle class="outline" cx="0" cy="0" r="25" fill="#6DCE9E" stroke="#60B58B" stroke-width="2px"/><text text-anchor="middle" pointer-events="none" y="5" font-size="10px" fill="#FFFFFF" font-family="sans-serif"> outside</text></g><g class="node" transform="translate(-243.45095358071268,-195.86980385612353)"><circle class="outline" cx="0" cy="0" r="25" fill="#FFD86E" stroke="#EDBA39" stroke-width="2px"/><text text-anchor="middle" pointer-events="none" y="5" font-size="10px" fill="#604A0E" font-family="sans-serif"> 696</text></g><g class="node" transform="translate(6.388845315107062,-75.93360238944756)"><circle class="outline" cx="0" cy="0" r="25" fill="#6DCE9E" stroke="#60B58B" stroke-width="2px"/><text text-anchor="middle" pointer-events="none" y="5" font-size="10px" fill="#FFFFFF" font-family="sans-serif"> perim</text></g><g class="node" transform="translate(-238.7814094922002,59.20830043685824)"><circle class="outline" cx="0" cy="0" r="25" fill="#FFD86E" stroke="#EDBA39" stroke-width="2px"/><text text-anchor="middle" pointer-events="none" y="5" font-size="10px" fill="#604A0E" font-family="sans-serif"> 1099</text></g><g class="node" transform="translate(134.11292290841328,-191.91397875756206)"><circle class="outline" cx="0" cy="0" r="25" fill="#68BDF6" stroke="#5CA8DB" stroke-width="2px"/><text text-anchor="middle" pointer-events="none" y="5" font-size="10px" fill="#FFFFFF" font-family="sans-serif"> Perimet…</text></g><g class="node" transform="translate(5.498256322237115,65.5744941887628)"><circle class="outline" cx="0" cy="0" r="25" fill="#FFD86E" stroke="#EDBA39" stroke-width="2px"/><text text-anchor="middle" pointer-events="none" y="5" font-size="10px" fill="#604A0E" font-family="sans-serif"> 0</text></g><g class="node" transform="translate(-112.17133615749431,-77.75134658592893)"><circle class="outline" cx="0" cy="0" r="25" fill="#FFD86E" stroke="#EDBA39" stroke-width="2px"/><text text-anchor="middle" pointer-events="none" y="5" font-size="10px" fill="#604A0E" font-family="sans-serif"> 1095</text></g><g class="node" transform="translate(137.33213274353633,61.82857664358744)"><circle class="outline" cx="0" cy="0" r="25" fill="#68BDF6" stroke="#5CA8DB" stroke-width="2px"/><text text-anchor="middle" pointer-events="none" y="5" font-size="10px" fill="#FFFFFF" font-family="sans-serif"> GuestFW</text></g></g></svg>